<mxfile host="app.diagrams.net" agent="Mozilla/5.0 (Macintosh; Intel Mac OS X 10_15_7) AppleWebKit/537.36 (KHTML, like Gecko) Chrome/137.0.0.0 Safari/537.36" version="27.0.5">
  <diagram name="Page-1" id="9vqEeSvCgtOwYjMMvHnc">
    <mxGraphModel dx="1018" dy="611" grid="1" gridSize="10" guides="1" tooltips="1" connect="1" arrows="1" fold="1" page="1" pageScale="1" pageWidth="1100" pageHeight="850" math="0" shadow="0">
      <root>
        <mxCell id="0" />
        <mxCell id="1" parent="0" />
        <mxCell id="rdM9tfURJHNwp3eiRm0u-3" value="" style="aspect=fixed;sketch=0;html=1;dashed=0;whitespace=wrap;verticalLabelPosition=bottom;verticalAlign=top;fillColor=#2875E2;strokeColor=#ffffff;points=[[0.005,0.63,0],[0.1,0.2,0],[0.9,0.2,0],[0.5,0,0],[0.995,0.63,0],[0.72,0.99,0],[0.5,1,0],[0.28,0.99,0]];shape=mxgraph.kubernetes.icon2;prIcon=svc" vertex="1" parent="1">
          <mxGeometry x="200" y="200" width="50" height="48" as="geometry" />
        </mxCell>
        <mxCell id="rdM9tfURJHNwp3eiRm0u-4" value="" style="aspect=fixed;sketch=0;html=1;dashed=0;whitespace=wrap;verticalLabelPosition=bottom;verticalAlign=top;fillColor=#2875E2;strokeColor=#ffffff;points=[[0.005,0.63,0],[0.1,0.2,0],[0.9,0.2,0],[0.5,0,0],[0.995,0.63,0],[0.72,0.99,0],[0.5,1,0],[0.28,0.99,0]];shape=mxgraph.kubernetes.icon2;prIcon=pod" vertex="1" parent="1">
          <mxGeometry x="200" y="120" width="50" height="48" as="geometry" />
        </mxCell>
        <mxCell id="rdM9tfURJHNwp3eiRm0u-5" value="" style="aspect=fixed;sketch=0;html=1;dashed=0;whitespace=wrap;verticalLabelPosition=bottom;verticalAlign=top;fillColor=#2875E2;strokeColor=#ffffff;points=[[0.005,0.63,0],[0.1,0.2,0],[0.9,0.2,0],[0.5,0,0],[0.995,0.63,0],[0.72,0.99,0],[0.5,1,0],[0.28,0.99,0]];shape=mxgraph.kubernetes.icon2;prIcon=pod" vertex="1" parent="1">
          <mxGeometry x="200" y="280" width="50" height="48" as="geometry" />
        </mxCell>
        <mxCell id="rdM9tfURJHNwp3eiRm0u-6" value="" style="aspect=fixed;sketch=0;html=1;dashed=0;whitespace=wrap;verticalLabelPosition=bottom;verticalAlign=top;fillColor=#2875E2;strokeColor=#ffffff;points=[[0.005,0.63,0],[0.1,0.2,0],[0.9,0.2,0],[0.5,0,0],[0.995,0.63,0],[0.72,0.99,0],[0.5,1,0],[0.28,0.99,0]];shape=mxgraph.kubernetes.icon2;prIcon=svc" vertex="1" parent="1">
          <mxGeometry x="200" y="360" width="50" height="48" as="geometry" />
        </mxCell>
        <mxCell id="rdM9tfURJHNwp3eiRm0u-7" value="" style="aspect=fixed;sketch=0;html=1;dashed=0;whitespace=wrap;verticalLabelPosition=bottom;verticalAlign=top;fillColor=#2875E2;strokeColor=#ffffff;points=[[0.005,0.63,0],[0.1,0.2,0],[0.9,0.2,0],[0.5,0,0],[0.995,0.63,0],[0.72,0.99,0],[0.5,1,0],[0.28,0.99,0]];shape=mxgraph.kubernetes.icon2;prIcon=pod" vertex="1" parent="1">
          <mxGeometry x="200" y="440" width="50" height="48" as="geometry" />
        </mxCell>
        <mxCell id="rdM9tfURJHNwp3eiRm0u-8" value="Frontend&amp;nbsp;&lt;div&gt;Microservices&lt;/div&gt;" style="text;strokeColor=none;align=center;fillColor=none;html=1;verticalAlign=middle;whiteSpace=wrap;rounded=0;" vertex="1" parent="1">
          <mxGeometry x="120" y="120" width="60" height="30" as="geometry" />
        </mxCell>
        <mxCell id="rdM9tfURJHNwp3eiRm0u-9" value="Backend&lt;div&gt;Services&lt;/div&gt;" style="text;strokeColor=none;align=center;fillColor=none;html=1;verticalAlign=middle;whiteSpace=wrap;rounded=0;" vertex="1" parent="1">
          <mxGeometry x="280" y="209" width="60" height="30" as="geometry" />
        </mxCell>
        <mxCell id="rdM9tfURJHNwp3eiRm0u-10" value="Inventory&lt;div&gt;Services&lt;/div&gt;" style="text;strokeColor=none;align=center;fillColor=none;html=1;verticalAlign=middle;whiteSpace=wrap;rounded=0;" vertex="1" parent="1">
          <mxGeometry x="270" y="369" width="60" height="30" as="geometry" />
        </mxCell>
        <mxCell id="rdM9tfURJHNwp3eiRm0u-11" value="Backned&amp;nbsp;&lt;div&gt;Microservices&lt;/div&gt;" style="text;strokeColor=none;align=center;fillColor=none;html=1;verticalAlign=middle;whiteSpace=wrap;rounded=0;" vertex="1" parent="1">
          <mxGeometry x="110" y="280" width="60" height="30" as="geometry" />
        </mxCell>
        <mxCell id="rdM9tfURJHNwp3eiRm0u-12" value="Inventory&amp;nbsp;&lt;div&gt;Microservices&lt;/div&gt;" style="text;strokeColor=none;align=center;fillColor=none;html=1;verticalAlign=middle;whiteSpace=wrap;rounded=0;" vertex="1" parent="1">
          <mxGeometry x="110" y="449" width="60" height="30" as="geometry" />
        </mxCell>
        <mxCell id="rdM9tfURJHNwp3eiRm0u-13" style="edgeStyle=orthogonalEdgeStyle;rounded=0;orthogonalLoop=1;jettySize=auto;html=1;exitX=0.5;exitY=1;exitDx=0;exitDy=0;exitPerimeter=0;entryX=0.5;entryY=0;entryDx=0;entryDy=0;entryPerimeter=0;" edge="1" parent="1" source="rdM9tfURJHNwp3eiRm0u-4" target="rdM9tfURJHNwp3eiRm0u-3">
          <mxGeometry relative="1" as="geometry" />
        </mxCell>
        <mxCell id="rdM9tfURJHNwp3eiRm0u-14" style="edgeStyle=orthogonalEdgeStyle;rounded=0;orthogonalLoop=1;jettySize=auto;html=1;exitX=0.5;exitY=1;exitDx=0;exitDy=0;exitPerimeter=0;entryX=0.5;entryY=0;entryDx=0;entryDy=0;entryPerimeter=0;" edge="1" parent="1" source="rdM9tfURJHNwp3eiRm0u-3" target="rdM9tfURJHNwp3eiRm0u-5">
          <mxGeometry relative="1" as="geometry" />
        </mxCell>
        <mxCell id="rdM9tfURJHNwp3eiRm0u-15" style="edgeStyle=orthogonalEdgeStyle;rounded=0;orthogonalLoop=1;jettySize=auto;html=1;exitX=0.5;exitY=1;exitDx=0;exitDy=0;exitPerimeter=0;entryX=0.5;entryY=0;entryDx=0;entryDy=0;entryPerimeter=0;" edge="1" parent="1" source="rdM9tfURJHNwp3eiRm0u-5" target="rdM9tfURJHNwp3eiRm0u-6">
          <mxGeometry relative="1" as="geometry" />
        </mxCell>
        <mxCell id="rdM9tfURJHNwp3eiRm0u-16" style="edgeStyle=orthogonalEdgeStyle;rounded=0;orthogonalLoop=1;jettySize=auto;html=1;exitX=0.5;exitY=1;exitDx=0;exitDy=0;exitPerimeter=0;entryX=0.5;entryY=0;entryDx=0;entryDy=0;entryPerimeter=0;" edge="1" parent="1" source="rdM9tfURJHNwp3eiRm0u-6" target="rdM9tfURJHNwp3eiRm0u-7">
          <mxGeometry relative="1" as="geometry" />
        </mxCell>
        <mxCell id="rdM9tfURJHNwp3eiRm0u-17" value="&lt;b&gt;UI-App&lt;/b&gt;" style="text;strokeColor=none;align=center;fillColor=none;html=1;verticalAlign=middle;whiteSpace=wrap;rounded=0;" vertex="1" parent="1">
          <mxGeometry x="220" y="160" width="60" height="30" as="geometry" />
        </mxCell>
        <mxCell id="rdM9tfURJHNwp3eiRm0u-18" value="&lt;b&gt;BKND-App&lt;/b&gt;" style="text;strokeColor=none;align=center;fillColor=none;html=1;verticalAlign=middle;whiteSpace=wrap;rounded=0;" vertex="1" parent="1">
          <mxGeometry x="230" y="328" width="90" height="30" as="geometry" />
        </mxCell>
        <mxCell id="rdM9tfURJHNwp3eiRm0u-19" value="&lt;b&gt;Inv-App&lt;/b&gt;" style="text;strokeColor=none;align=center;fillColor=none;html=1;verticalAlign=middle;whiteSpace=wrap;rounded=0;" vertex="1" parent="1">
          <mxGeometry x="200" y="488" width="90" height="30" as="geometry" />
        </mxCell>
        <mxCell id="rdM9tfURJHNwp3eiRm0u-20" value="" style="aspect=fixed;sketch=0;html=1;dashed=0;whitespace=wrap;verticalLabelPosition=bottom;verticalAlign=top;fillColor=#2875E2;strokeColor=#ffffff;points=[[0.005,0.63,0],[0.1,0.2,0],[0.9,0.2,0],[0.5,0,0],[0.995,0.63,0],[0.72,0.99,0],[0.5,1,0],[0.28,0.99,0]];shape=mxgraph.kubernetes.icon2;prIcon=pod" vertex="1" parent="1">
          <mxGeometry x="680" y="120" width="50" height="48" as="geometry" />
        </mxCell>
        <mxCell id="rdM9tfURJHNwp3eiRm0u-21" value="" style="aspect=fixed;sketch=0;html=1;dashed=0;whitespace=wrap;verticalLabelPosition=bottom;verticalAlign=top;fillColor=#2875E2;strokeColor=#ffffff;points=[[0.005,0.63,0],[0.1,0.2,0],[0.9,0.2,0],[0.5,0,0],[0.995,0.63,0],[0.72,0.99,0],[0.5,1,0],[0.28,0.99,0]];shape=mxgraph.kubernetes.icon2;prIcon=pod" vertex="1" parent="1">
          <mxGeometry x="560" y="280" width="50" height="48" as="geometry" />
        </mxCell>
        <mxCell id="rdM9tfURJHNwp3eiRm0u-22" value="" style="aspect=fixed;sketch=0;html=1;dashed=0;whitespace=wrap;verticalLabelPosition=bottom;verticalAlign=top;fillColor=#2875E2;strokeColor=#ffffff;points=[[0.005,0.63,0],[0.1,0.2,0],[0.9,0.2,0],[0.5,0,0],[0.995,0.63,0],[0.72,0.99,0],[0.5,1,0],[0.28,0.99,0]];shape=mxgraph.kubernetes.icon2;prIcon=pod" vertex="1" parent="1">
          <mxGeometry x="800" y="280" width="50" height="48" as="geometry" />
        </mxCell>
        <mxCell id="rdM9tfURJHNwp3eiRm0u-23" value="" style="aspect=fixed;sketch=0;html=1;dashed=0;whitespace=wrap;verticalLabelPosition=bottom;verticalAlign=top;fillColor=#2875E2;strokeColor=#ffffff;points=[[0.005,0.63,0],[0.1,0.2,0],[0.9,0.2,0],[0.5,0,0],[0.995,0.63,0],[0.72,0.99,0],[0.5,1,0],[0.28,0.99,0]];shape=mxgraph.kubernetes.icon2;prIcon=pod" vertex="1" parent="1">
          <mxGeometry x="680" y="399" width="50" height="48" as="geometry" />
        </mxCell>
        <mxCell id="rdM9tfURJHNwp3eiRm0u-24" style="rounded=0;orthogonalLoop=1;jettySize=auto;html=1;exitX=0.5;exitY=1;exitDx=0;exitDy=0;exitPerimeter=0;entryX=0.5;entryY=0;entryDx=0;entryDy=0;entryPerimeter=0;" edge="1" parent="1" source="rdM9tfURJHNwp3eiRm0u-20" target="rdM9tfURJHNwp3eiRm0u-21">
          <mxGeometry relative="1" as="geometry" />
        </mxCell>
        <mxCell id="rdM9tfURJHNwp3eiRm0u-25" style="rounded=0;orthogonalLoop=1;jettySize=auto;html=1;exitX=0.5;exitY=1;exitDx=0;exitDy=0;exitPerimeter=0;entryX=0.5;entryY=0;entryDx=0;entryDy=0;entryPerimeter=0;" edge="1" parent="1" source="rdM9tfURJHNwp3eiRm0u-20" target="rdM9tfURJHNwp3eiRm0u-22">
          <mxGeometry relative="1" as="geometry" />
        </mxCell>
        <mxCell id="rdM9tfURJHNwp3eiRm0u-26" style="rounded=0;orthogonalLoop=1;jettySize=auto;html=1;exitX=0.5;exitY=1;exitDx=0;exitDy=0;exitPerimeter=0;entryX=0.1;entryY=0.2;entryDx=0;entryDy=0;entryPerimeter=0;" edge="1" parent="1" source="rdM9tfURJHNwp3eiRm0u-21" target="rdM9tfURJHNwp3eiRm0u-23">
          <mxGeometry relative="1" as="geometry" />
        </mxCell>
        <mxCell id="rdM9tfURJHNwp3eiRm0u-27" style="rounded=0;orthogonalLoop=1;jettySize=auto;html=1;exitX=0.5;exitY=1;exitDx=0;exitDy=0;exitPerimeter=0;entryX=0.9;entryY=0.2;entryDx=0;entryDy=0;entryPerimeter=0;" edge="1" parent="1" source="rdM9tfURJHNwp3eiRm0u-22" target="rdM9tfURJHNwp3eiRm0u-23">
          <mxGeometry relative="1" as="geometry" />
        </mxCell>
        <mxCell id="rdM9tfURJHNwp3eiRm0u-28" value="&lt;b&gt;UI-App&lt;/b&gt;" style="text;strokeColor=none;align=center;fillColor=none;html=1;verticalAlign=middle;whiteSpace=wrap;rounded=0;" vertex="1" parent="1">
          <mxGeometry x="720" y="150" width="60" height="30" as="geometry" />
        </mxCell>
        <mxCell id="rdM9tfURJHNwp3eiRm0u-29" value="&lt;b&gt;BKND-App-v1&lt;/b&gt;" style="text;strokeColor=none;align=center;fillColor=none;html=1;verticalAlign=middle;whiteSpace=wrap;rounded=0;" vertex="1" parent="1">
          <mxGeometry x="470" y="289" width="90" height="30" as="geometry" />
        </mxCell>
        <mxCell id="rdM9tfURJHNwp3eiRm0u-30" value="&lt;b&gt;BKND-App-v2&lt;/b&gt;" style="text;strokeColor=none;align=center;fillColor=none;html=1;verticalAlign=middle;whiteSpace=wrap;rounded=0;" vertex="1" parent="1">
          <mxGeometry x="850" y="289" width="90" height="30" as="geometry" />
        </mxCell>
        <mxCell id="rdM9tfURJHNwp3eiRm0u-31" value="&lt;b&gt;Inv-App&lt;/b&gt;" style="text;strokeColor=none;align=center;fillColor=none;html=1;verticalAlign=middle;whiteSpace=wrap;rounded=0;" vertex="1" parent="1">
          <mxGeometry x="660" y="458" width="90" height="30" as="geometry" />
        </mxCell>
        <mxCell id="rdM9tfURJHNwp3eiRm0u-32" value="&lt;b&gt;90%&lt;/b&gt;" style="text;strokeColor=none;align=center;fillColor=none;html=1;verticalAlign=middle;whiteSpace=wrap;rounded=0;" vertex="1" parent="1">
          <mxGeometry x="540" y="200" width="90" height="30" as="geometry" />
        </mxCell>
        <mxCell id="rdM9tfURJHNwp3eiRm0u-33" value="&lt;b&gt;10%&lt;/b&gt;" style="text;strokeColor=none;align=center;fillColor=none;html=1;verticalAlign=middle;whiteSpace=wrap;rounded=0;" vertex="1" parent="1">
          <mxGeometry x="760" y="200" width="90" height="30" as="geometry" />
        </mxCell>
        <mxCell id="rdM9tfURJHNwp3eiRm0u-34" value="&lt;b&gt;Canary&lt;/b&gt;" style="text;strokeColor=none;align=center;fillColor=none;html=1;verticalAlign=middle;whiteSpace=wrap;rounded=0;" vertex="1" parent="1">
          <mxGeometry x="830" y="90" width="60" height="30" as="geometry" />
        </mxCell>
        <mxCell id="rdM9tfURJHNwp3eiRm0u-35" value="&lt;b&gt;Regular K8S application&lt;/b&gt;" style="text;strokeColor=none;align=center;fillColor=none;html=1;verticalAlign=middle;whiteSpace=wrap;rounded=0;" vertex="1" parent="1">
          <mxGeometry x="110" y="40" width="120" height="30" as="geometry" />
        </mxCell>
      </root>
    </mxGraphModel>
  </diagram>
</mxfile>
